<svg width="26" height="25" viewBox="0 0 26 25" fill="none" xmlns="http://www.w3.org/2000/svg">
<g clip-path="url(#clip0_56_1599)">
<path d="M3.37089 5.59988C4.17136 2.13988 9.38439 2.13988 10.1748 5.59988C10.6451 7.62988 9.35437 9.34988 8.23372 10.4199C7.41324 11.1999 6.12249 11.1899 5.30202 10.4199C4.19137 9.34988 2.90062 7.62988 3.37089 5.59988Z" stroke="#292D32" stroke-width="1.5"/>
<path d="M16.3786 17.5999C17.1791 14.1399 22.4222 14.1399 23.2226 17.5999C23.6929 19.6299 22.4021 21.3499 21.2715 22.4199C20.451 23.1999 19.1503 23.1899 18.3298 22.4199C17.1991 21.3499 15.9084 19.6299 16.3786 17.5999Z" stroke="#292D32" stroke-width="1.5"/>
<path d="M13.3066 6H15.9882C17.8393 6 18.6998 8.29 17.3089 9.51L9.3143 16.5C7.92349 17.71 8.78399 20 10.6251 20H13.3066" stroke="#292D32" stroke-width="1.5" stroke-linecap="round" stroke-linejoin="round"/>
<path d="M6.78932 6.5H6.80088" stroke="#292D32" stroke-width="2" stroke-linecap="round" stroke-linejoin="round"/>
<path d="M19.7966 18.5H19.8082" stroke="#292D32" stroke-width="2" stroke-linecap="round" stroke-linejoin="round"/>
</g>
<defs>
<clipPath id="clip0_56_1599">
<rect width="25.0145" height="25" fill="white" transform="translate(0.299316)"/>
</clipPath>
</defs>
</svg>
