<svg width="26" height="25" viewBox="0 0 26 25" fill="none" xmlns="http://www.w3.org/2000/svg">
<g clip-path="url(#clip0_56_1584)">
<path fill-rule="evenodd" clip-rule="evenodd" d="M0.521711 4.6875C0.418051 4.6875 0.318636 4.72859 0.245337 4.80185C0.172038 4.8751 0.130859 4.97452 0.130859 5.07812L0.130859 17.5781C0.130859 17.6817 0.172038 17.7811 0.245337 17.8543C0.318636 17.9276 0.418051 17.9688 0.521711 17.9688H4.10192C4.08394 18.0938 4.06283 18.2202 4.06283 18.3499C4.06283 19.8562 5.29167 21.0843 6.7988 21.0843C8.30436 21.0843 9.53476 19.8562 9.53476 18.3499C9.53476 18.2202 9.51209 18.0945 9.49489 17.9688H16.1558C16.1821 17.9683 16.2083 17.9651 16.234 17.9593H17C16.9813 18.0882 16.961 18.2171 16.961 18.3499C16.961 19.8554 18.1898 21.0843 19.6969 21.0843C21.2025 21.0843 22.4329 19.8554 22.4329 18.3499C22.4329 18.2171 22.411 18.0882 22.393 17.9593H24.7545C24.8582 17.9593 24.9576 17.9182 25.0309 17.845C25.1042 17.7717 25.1454 17.6723 25.1454 17.5687V15.2538C25.1462 15.2447 25.1468 15.2357 25.147 15.2266V13.6593C25.1471 13.6462 25.1466 13.6333 25.1454 13.6203V11.3179C25.1457 11.2232 25.1115 11.1316 25.0492 11.0601C25.0349 11.0382 25.0184 11.0178 25 10.9992L20.95 6.37417C20.9132 6.3323 20.8678 6.29875 20.817 6.27584C20.7662 6.25294 20.711 6.24117 20.6553 6.24132H16.5466V5.07812C16.5466 4.97452 16.5055 4.8751 16.4322 4.80185C16.3589 4.72859 16.2595 4.6875 16.1558 4.6875H0.521711ZM0.912564 5.46875H15.7649V14.0531H0.912564V5.46875ZM2.49239 6.24056C2.389 6.2422 2.29047 6.28472 2.21839 6.35881C2.1463 6.43291 2.10654 6.53252 2.10779 6.63586V12.8812C2.10779 12.9848 2.14897 13.0842 2.22227 13.1575C2.29557 13.2307 2.39498 13.2718 2.49864 13.2718C2.6023 13.2718 2.70172 13.2307 2.77502 13.1575C2.84831 13.0842 2.88949 12.9848 2.88949 12.8812V6.63586C2.89013 6.58364 2.88028 6.53181 2.86053 6.48346C2.84077 6.43511 2.81152 6.39128 2.7745 6.35443C2.73748 6.31757 2.69343 6.28843 2.64498 6.26888C2.59652 6.24933 2.54464 6.23972 2.49239 6.24056ZM4.8375 6.24056C4.73411 6.2422 4.63559 6.28472 4.5635 6.35881C4.49142 6.43291 4.45165 6.53252 4.4529 6.63586V12.8812C4.4529 12.9848 4.49408 13.0842 4.56738 13.1575C4.64068 13.2307 4.74009 13.2718 4.84375 13.2718C4.94741 13.2718 5.04683 13.2307 5.12013 13.1575C5.19343 13.0842 5.23461 12.9848 5.23461 12.8812V6.63586C5.23524 6.58364 5.22539 6.53181 5.20564 6.48346C5.18589 6.43511 5.15663 6.39128 5.11961 6.35443C5.08259 6.31757 5.03855 6.28843 4.99009 6.26888C4.94164 6.24933 4.88975 6.23972 4.8375 6.24056ZM7.18261 6.24056C7.07922 6.2422 6.9807 6.28472 6.90861 6.35881C6.83653 6.43291 6.79676 6.53252 6.79801 6.63586V12.8812C6.79801 12.9848 6.83919 13.0842 6.91249 13.1575C6.98579 13.2307 7.08521 13.2718 7.18887 13.2718C7.29253 13.2718 7.39194 13.2307 7.46524 13.1575C7.53854 13.0842 7.57972 12.9848 7.57972 12.8812V6.63586C7.58035 6.58364 7.5705 6.53181 7.55075 6.48346C7.531 6.43511 7.50175 6.39128 7.46472 6.35443C7.4277 6.31757 7.38366 6.28843 7.3352 6.26888C7.28675 6.24933 7.23486 6.23972 7.18261 6.24056ZM9.52773 6.24056C9.42434 6.2422 9.32581 6.28472 9.25373 6.35881C9.18164 6.43291 9.14187 6.53252 9.14313 6.63586V12.8812C9.14313 12.9848 9.18431 13.0842 9.2576 13.1575C9.3309 13.2307 9.43032 13.2718 9.53398 13.2718C9.63764 13.2718 9.73705 13.2307 9.81035 13.1575C9.88365 13.0842 9.92483 12.9848 9.92483 12.8812V6.63586C9.92547 6.58364 9.91562 6.53181 9.89586 6.48346C9.87611 6.43511 9.84686 6.39128 9.80984 6.35443C9.77281 6.31757 9.72877 6.28843 9.68032 6.26888C9.63186 6.24933 9.57997 6.23972 9.52773 6.24056ZM11.8728 6.24056C11.7694 6.2422 11.6709 6.28472 11.5988 6.35881C11.5268 6.43291 11.487 6.53252 11.4882 6.63586V12.8812C11.4882 12.9848 11.5294 13.0842 11.6027 13.1575C11.676 13.2307 11.7754 13.2718 11.8791 13.2718C11.9828 13.2718 12.0822 13.2307 12.1555 13.1575C12.2288 13.0842 12.2699 12.9848 12.2699 12.8812V6.63586C12.2706 6.58364 12.2607 6.53181 12.241 6.48346C12.2212 6.43511 12.192 6.39128 12.1549 6.35443C12.1179 6.31757 12.0739 6.28843 12.0254 6.26888C11.977 6.24933 11.9251 6.23972 11.8728 6.24056ZM14.218 6.24056C14.1146 6.2422 14.016 6.28472 13.944 6.35881C13.8719 6.43291 13.8321 6.53252 13.8334 6.63586V12.8812C13.8334 12.9848 13.8745 13.0842 13.9478 13.1575C14.0211 13.2307 14.1205 13.2718 14.2242 13.2718C14.3279 13.2718 14.4273 13.2307 14.5006 13.1575C14.5739 13.0842 14.6151 12.9848 14.6151 12.8812V6.63586C14.6157 6.58364 14.6058 6.53181 14.5861 6.48346C14.5663 6.43511 14.5371 6.39128 14.5001 6.35443C14.463 6.31757 14.419 6.28843 14.3705 6.26888C14.3221 6.24933 14.2702 6.23972 14.218 6.24056ZM16.5466 7.02181H20.4786L23.8994 10.9273H16.5466V7.02181ZM16.5701 11.7085H24.3637V13.2695H23.2122C23.1086 13.2695 23.0092 13.3106 22.9359 13.3839C22.8626 13.4571 22.8214 13.5565 22.8214 13.6601V15.2266C22.8214 15.3302 22.8626 15.4295 22.9359 15.5027C23.0092 15.576 23.1086 15.6172 23.2122 15.6172H24.3637V17.1781H22.1577C21.9367 16.712 21.5883 16.318 21.1527 16.0415C20.7171 15.765 20.2122 15.6173 19.6961 15.6156C19.1802 15.6175 18.6754 15.7653 18.24 16.0418C17.8046 16.3182 17.4563 16.7121 17.2353 17.1781H16.5693V11.7085H16.5701ZM17.6958 12.8819C17.5921 12.8872 17.4948 12.9335 17.4252 13.0105C17.3557 13.0875 17.3195 13.1889 17.3248 13.2925C17.3301 13.3961 17.3764 13.4934 17.4534 13.5629C17.5304 13.6324 17.632 13.6685 17.7356 13.6632H18.5298C18.6335 13.6632 18.7329 13.6221 18.8062 13.5489C18.8795 13.4756 18.9207 13.3762 18.9207 13.2726C18.9207 13.169 18.8795 13.0696 18.8062 12.9964C18.7329 12.9231 18.6335 12.8819 18.5298 12.8819H17.7356C17.7226 12.8813 17.7096 12.8813 17.6965 12.8819H17.6958ZM23.6031 14.0508H24.3637V14.8359H23.6031V14.0508ZM0.912564 14.8343H15.7649V17.1866H9.26585C9.04561 16.718 8.69676 16.3215 8.25989 16.0433C7.82301 15.765 7.31607 15.6164 6.79801 15.6148C6.2801 15.6166 5.77332 15.7652 5.33659 16.0435C4.89987 16.3217 4.55114 16.7181 4.33096 17.1866H0.912564V16.396H2.10154C2.2052 16.396 2.30461 16.3549 2.37791 16.2816C2.45121 16.2083 2.49239 16.109 2.49239 16.0054C2.49239 15.9018 2.45121 15.8025 2.37791 15.7292C2.30461 15.656 2.2052 15.6148 2.10154 15.6148H0.912564V14.8343ZM6.7988 16.3968C7.88224 16.3968 8.75306 17.2663 8.75306 18.3499C8.75306 19.4327 7.88224 20.3031 6.7988 20.3031C6.54193 20.3039 6.28743 20.254 6.04996 20.1561C5.81248 20.0582 5.59672 19.9144 5.41508 19.7329C5.23345 19.5513 5.08953 19.3357 4.99161 19.0984C4.89369 18.861 4.84371 18.6067 4.84454 18.3499C4.84454 17.2663 5.71457 16.3968 6.7988 16.3968ZM19.6969 16.3968C20.7804 16.3968 21.6512 17.2663 21.6512 18.3499C21.6512 19.4327 20.7804 20.3031 19.6969 20.3031C19.44 20.3039 19.1856 20.254 18.9481 20.1561C18.7106 20.0582 18.4948 19.9144 18.3132 19.7329C18.1316 19.5513 17.9876 19.3357 17.8897 19.0984C17.7918 18.861 17.7418 18.6067 17.7427 18.3499C17.7427 17.2663 18.6127 16.3968 19.6969 16.3968ZM6.7988 17.1781C6.15545 17.1781 5.62624 17.707 5.62624 18.3499C5.62624 18.9921 6.15545 19.5218 6.7988 19.5218C7.44136 19.5218 7.97135 18.9921 7.97135 18.3499C7.97135 17.707 7.44136 17.1781 6.7988 17.1781ZM19.6969 17.1781C19.0536 17.1781 18.5244 17.707 18.5244 18.3499C18.5244 18.9921 19.0536 19.5218 19.6969 19.5218C20.3395 19.5218 20.8695 18.9921 20.8695 18.3499C20.8695 17.707 20.3395 17.1781 19.6969 17.1781ZM6.7988 17.9593C7.01845 17.9593 7.18965 18.1288 7.18965 18.3499C7.18965 18.5702 7.01845 18.7406 6.7988 18.7406C6.74726 18.7413 6.69611 18.7317 6.64836 18.7123C6.6006 18.693 6.55722 18.6643 6.52078 18.6278C6.48434 18.5914 6.45558 18.5481 6.43619 18.5003C6.41681 18.4526 6.40721 18.4014 6.40794 18.3499C6.40794 18.1288 6.57757 17.9593 6.7988 17.9593ZM19.6969 17.9593C19.9166 17.9593 20.0878 18.1288 20.0878 18.3499C20.0878 18.5702 19.9166 18.7406 19.6969 18.7406C19.6454 18.7413 19.5942 18.7317 19.5465 18.7123C19.4987 18.693 19.4553 18.6643 19.4189 18.6278C19.3825 18.5914 19.3537 18.5481 19.3343 18.5003C19.3149 18.4526 19.3053 18.4014 19.3061 18.3499C19.3061 18.1288 19.4757 17.9593 19.6969 17.9593Z" fill="black"/>
</g>
<defs>
<clipPath id="clip0_56_1584">
<rect width="25.0145" height="25" fill="white" transform="translate(0.130859)"/>
</clipPath>
</defs>
</svg>
