<svg width="51" height="51" viewBox="0 0 51 51" fill="none" xmlns="http://www.w3.org/2000/svg">
<path d="M28.5502 15H23.4502C21.6502 15 21.2502 15.9 21.0202 17.01L20.2002 20.93H31.8002L30.9802 17.01C30.7502 15.9 30.3502 15 28.5502 15Z" stroke="black" stroke-width="1.5" stroke-linecap="round" stroke-linejoin="round"/>
<path d="M33.2401 27.3199C33.3201 28.1699 32.6401 28.9 31.7701 28.9H30.4101C29.6301 28.9 29.5201 28.57 29.3801 28.15L29.23 27.7199C29.03 27.1299 28.9001 26.7299 27.8501 26.7299H24.1401C23.1001 26.7299 22.94 27.1799 22.76 27.7199L22.6101 28.15C22.4701 28.56 22.3601 28.9 21.5801 28.9H20.2201C19.3501 28.9 18.6701 28.1699 18.7501 27.3199L19.1601 22.9C19.2601 21.81 19.47 20.9199 21.37 20.9199H30.62C32.52 20.9199 32.7301 21.81 32.8301 22.9L33.2401 27.3199Z" stroke="black" stroke-width="1.5" stroke-linecap="round" stroke-linejoin="round"/>
<path d="M20.2002 18.75H19.4702" stroke="black" stroke-width="1.5" stroke-linecap="round" stroke-linejoin="round"/>
<path d="M32.5303 18.75H31.8003" stroke="black" stroke-width="1.5" stroke-linecap="round" stroke-linejoin="round"/>
<path d="M21.6499 23.8301H23.8199" stroke="black" stroke-width="1.5" stroke-linecap="round" stroke-linejoin="round"/>
<path d="M28.1802 23.8301H30.3502" stroke="black" stroke-width="1.5" stroke-linecap="round" stroke-linejoin="round"/>
<path d="M26 30V31" stroke="black" stroke-width="1.5" stroke-linecap="round" stroke-linejoin="round"/>
<path d="M26 34V35" stroke="black" stroke-width="1.5" stroke-linecap="round" stroke-linejoin="round"/>
<path d="M17 31L16 35" stroke="black" stroke-width="1.5" stroke-linecap="round" stroke-linejoin="round"/>
</svg>
