<svg xmlns="http://www.w3.org/2000/svg" viewBox="0 0 200 200"><defs><style>.cls-1{fill:#292d32;}</style></defs><g id="Layer_2" data-name="Layer 2"><g id="Layer_1-2" data-name="Layer 1"><path class="cls-1" d="M127.91,200H72.09C21.56,200,0,178.44,0,127.91V72.09C0,21.56,21.56,0,72.09,0h55.82C178.44,0,200,21.56,200,72.09v55.82C200,178.44,178.44,200,127.91,200ZM72.09,14C29.17,14,14,29.17,14,72.09v55.82c0,42.92,15.22,58.14,58.14,58.14h55.82c42.92,0,58.14-15.22,58.14-58.14V72.09c0-42.92-15.22-58.14-58.14-58.14Z"/><path class="cls-1" d="M100,110a6.94,6.94,0,0,1-3.5-.94L47.2,80.55a7,7,0,0,1,7-12.08L100,95l45.43-26.34a7,7,0,0,1,7,12.07L103.5,109.1A6.94,6.94,0,0,1,100,110Z"/><path class="cls-1" d="M100,160.64a7,7,0,0,1-7-7V103a7,7,0,0,1,14,0v50.7A7,7,0,0,1,100,160.64Z"/><path class="cls-1" d="M100,162.85a31.11,31.11,0,0,1-14.94-3.55L55.31,142.75c-8.88-4.86-15.87-16.71-15.87-26.94V84.28c0-10.17,7-22,15.87-26.94L85,40.81c8.48-4.82,21.34-4.89,30-.13l29.79,16.57c8.88,4.86,15.87,16.71,15.87,26.93v31.63c0,10.16-7,22-15.87,26.94L115,159.3A31.58,31.58,0,0,1,100,162.85Zm.1-111.73a17,17,0,0,0-8.18,1.82l-.08,0L62.09,69.54c-4.55,2.53-8.69,9.55-8.69,14.74v31.53c0,5.22,4.12,12.24,8.65,14.72l29.8,16.58c4.27,2.39,12.1,2.37,16.41,0L138,130.56c4.55-2.53,8.69-9.56,8.69-14.75V84.18c0-5.21-4.12-12.23-8.65-14.72L108.24,52.88A17.63,17.63,0,0,0,100.11,51.12ZM88.46,46.88h0Z"/></g></g></svg>