<svg xmlns="http://www.w3.org/2000/svg" viewBox="0 0 200 200"><defs><style>.cls-1{fill:#292d32;}</style></defs><g id="Layer_2" data-name="Layer 2"><g id="Layer_1-2" data-name="Layer 1"><path class="cls-1" d="M55.6,41.51a7.09,7.09,0,0,1-7.25-6.92V6.92a7.26,7.26,0,0,1,14.5,0V34.59A7.09,7.09,0,0,1,55.6,41.51Z"/><path class="cls-1" d="M133,41.51a7.1,7.1,0,0,1-7.26-6.92V6.92a7.26,7.26,0,0,1,14.51,0V34.59A7.09,7.09,0,0,1,133,41.51Z"/><path class="cls-1" d="M176.47,79.23H12.09a6.93,6.93,0,1,1,0-13.84H176.47a6.93,6.93,0,1,1,0,13.84Z"/><path class="cls-1" d="M107.53,198.3H55.6C20.26,198.3,0,179,0,145.27V66.87c0-33.71,20.26-53,55.6-53H133c35.33,0,55.6,19.32,55.6,53v41.5a7.26,7.26,0,0,1-14.51,0V66.87c0-26.38-13.45-39.2-41.09-39.2H55.6c-27.65,0-41.1,12.82-41.1,39.2v78.4c0,26.38,13.45,39.2,41.1,39.2h51.93a6.92,6.92,0,1,1,0,13.83Z"/><path class="cls-1" d="M94.32,124.06a9.23,9.23,0,1,1-.08-18.45h.08a9.24,9.24,0,1,1,0,18.45Z"/><path class="cls-1" d="M58.54,124.06a9.24,9.24,0,1,1-.09-18.45h.09a9.24,9.24,0,1,1,0,18.45Z"/><path class="cls-1" d="M58.54,151.73a9.24,9.24,0,1,1-.09-18.45h.09a9.24,9.24,0,1,1,0,18.45Z"/><path class="cls-1" d="M162,200c-21,0-38-16.28-38-36.28s17.05-36.28,38-36.28,38,16.27,38,36.28S182.94,200,162,200Zm0-61.49c-14.57,0-26.43,11.31-26.43,25.21s11.86,25.21,26.43,25.21,26.44-11.31,26.44-25.21S176.54,138.51,162,138.51Z"/><path class="cls-1" d="M173.91,179a6,6,0,0,1-3-.78l-10-5.69a12.28,12.28,0,0,1-6-10v-12.6a5.8,5.8,0,0,1,11.59,0v12.6l10.32,6.23a5.39,5.39,0,0,1,2,7.58A5.85,5.85,0,0,1,173.91,179Z"/></g></g></svg>