<svg xmlns="http://www.w3.org/2000/svg" viewBox="0 0 182.13 199.9"><defs><style>.cls-1{fill:#292d32;}</style></defs><g id="Layer_2" data-name="Layer 2"><g id="Layer_1-2" data-name="Layer 1"><path class="cls-1" d="M51.08,40a6.67,6.67,0,0,1-6.66-6.66V6.66a6.67,6.67,0,0,1,13.33,0V33.32A6.67,6.67,0,0,1,51.08,40Z"/><path class="cls-1" d="M122.16,40a6.66,6.66,0,0,1-6.66-6.66V6.66a6.66,6.66,0,0,1,13.32,0V33.32A6.66,6.66,0,0,1,122.16,40Z"/><path class="cls-1" d="M162.14,76.31h-151a6.66,6.66,0,1,1,0-13.32h151a6.66,6.66,0,1,1,0,13.32Z"/><path class="cls-1" d="M139.93,199.9a41.49,41.49,0,0,1-27.83-10.6,37.86,37.86,0,0,1-8.31-9.94,41.31,41.31,0,0,1-6.06-21.66,42.2,42.2,0,0,1,84.4,0A41.53,41.53,0,0,1,176,179.49,42.15,42.15,0,0,1,139.93,199.9Zm0-71.08a28.92,28.92,0,0,0-28.88,28.88,28.08,28.08,0,0,0,4.17,14.8,25.49,25.49,0,0,0,5.62,6.74,28.87,28.87,0,0,0,48-21.54,28.93,28.93,0,0,0-28.87-28.88Z"/><path class="cls-1" d="M134.86,173.15a6.63,6.63,0,0,1-4.71-2l-8.8-8.8a6.66,6.66,0,0,1,9.42-9.42l4.27,4.27,14.21-13.16a6.67,6.67,0,1,1,9.06,9.79l-18.92,17.5A6.68,6.68,0,0,1,134.86,173.15Z"/><path class="cls-1" d="M116.56,191H51.08C18.62,191,0,172.39,0,139.93V64.41C0,32,18.62,13.33,51.08,13.33h71.08c32.46,0,51.08,18.62,51.08,51.08v69.83a6.67,6.67,0,0,1-11.67,4.4,28.84,28.84,0,0,0-50.52,19.06,28.08,28.08,0,0,0,4.17,14.8,25.49,25.49,0,0,0,5.62,6.74A6.66,6.66,0,0,1,116.56,191ZM51.08,26.65c-25.4,0-37.75,12.35-37.75,37.76v75.52c0,25.41,12.35,37.76,37.75,37.76h51.73a41.64,41.64,0,0,1-5.08-20,42.18,42.18,0,0,1,62.19-37.15V64.41c0-25.41-12.36-37.76-37.76-37.76Z"/><path class="cls-1" d="M86.67,119.5a8.89,8.89,0,0,1-.09-17.77h.09a8.89,8.89,0,0,1,0,17.77Z"/><path class="cls-1" d="M53.78,119.5a8.89,8.89,0,0,1-.08-17.77h.08a8.89,8.89,0,1,1,0,17.77Z"/><path class="cls-1" d="M53.78,146.15a8.89,8.89,0,0,1-.08-17.77h.08a8.89,8.89,0,1,1,0,17.77Z"/></g></g></svg>