<svg xmlns="http://www.w3.org/2000/svg" viewBox="0 0 200 192.47"><g id="Layer_2" data-name="Layer 2"><g id="Layer_1-2" data-name="Layer 1"><path d="M172.54,92.86h-145A9.37,9.37,0,0,1,18.4,81.57l10.25-49C32,16.48,39.29,0,68.19,0h63.74c28.89,0,36.21,16.48,39.55,32.59l10.24,49a9.37,9.37,0,0,1-9.18,11.29ZM39.11,74.11H161l-7.88-37.7c-2.49-12-5.4-17.66-21.2-17.66H68.19C52.39,18.75,49.48,24.4,47,36.4Z"/><path d="M172.18,192.47h-17c-16.49,0-19.92-10.24-21.76-15.74l-1.85-5.31c-2-6.08-2-6.08-8.38-6.08H76.82c-6.37,0-6.45.22-8.36,6l-1.92,5.51c-1.88,5.51-5.34,15.66-21.72,15.66h-17a28.07,28.07,0,0,1-20.71-9.1,27.32,27.32,0,0,1-7-20.9l5.13-55.23C6.83,90,12.4,74,42.2,74H157.8c29.81,0,35.37,16,37,33.26l5.12,55.22a27.37,27.37,0,0,1-7,20.9A28,28,0,0,1,172.18,192.47Zm-19.85-18.9c.31,0,1.22.15,2.85.15h17a9.12,9.12,0,0,0,6.83-3,8.39,8.39,0,0,0,2.2-6.52h0L176.08,109c-1-11.15-1.47-16.24-18.28-16.24H42.2c-16.8,0-17.27,5.09-18.29,16.23l-5.13,55.26a8.47,8.47,0,0,0,2.2,6.53,9.16,9.16,0,0,0,6.84,3h17a8.65,8.65,0,0,0,3.23-.37,11.41,11.41,0,0,1,.73-2.54l1.94-5.56c2.3-6.89,6.21-18.66,26.1-18.66h46.37c18.24,0,22.75,8.8,26.08,18.62l1.89,5.44c.36,1.07.8,2.37,1.08,2.93Z"/><path d="M27.57,65.61H18.45a9.37,9.37,0,0,1,0-18.74h9.12a9.37,9.37,0,1,1,0,18.74Z"/><path d="M181.67,65.61h-9.11a9.37,9.37,0,1,1,0-18.74h9.11a9.37,9.37,0,1,1,0,18.74Z"/><path d="M72.81,129.1H45.69a9.37,9.37,0,1,1,0-18.74H72.81a9.37,9.37,0,1,1,0,18.74Z"/><path d="M154.43,129.1H127.31a9.37,9.37,0,0,1,0-18.74h27.12a9.37,9.37,0,1,1,0,18.74Z"/></g></g></svg>