<?xml version="1.0" encoding="utf-8"?>
<!-- Generator: Adobe Illustrator 26.2.1, SVG Export Plug-In . SVG Version: 6.00 Build 0)  -->
<svg version="1.1" id="Layer_1" xmlns="http://www.w3.org/2000/svg" xmlns:xlink="http://www.w3.org/1999/xlink" x="0px" y="0px"
	 viewBox="0 0 200 200" style="enable-background:new 0 0 200 200;" xml:space="preserve">
<style type="text/css">
	.st0{fill:none;}
	.st1{fill:#292D32;}
</style>
<path class="st0" d="M141.9,107.5h-12c-14.4,0-22.5,7.9-22.5,22.5v12c0,14.4,7.9,22.5,22.5,22.5h12c14.4,0,22.5-7.9,22.5-22.5v-12
	C164.4,115.4,156.5,107.5,141.9,107.5z M155.4,141.9c0,9.4-4,13.4-13.4,13.4h-12c-9.4,0-13.4-4-13.4-13.4v-12
	c0-9.4,4-13.4,13.4-13.4h12c9.4,0,13.4,4,13.4,13.4V141.9z"/>
<path class="st0" d="M70.1,35.6h-12c-14.4,0-22.5,7.9-22.5,22.5v12c0,14.5,7.9,22.5,22.5,22.5h12c14.5,0,22.5-7.9,22.5-22.5v-12
	C92.5,43.5,84.6,35.6,70.1,35.6z M83.5,70.1c0,9.4-4,13.4-13.4,13.4h-12c-9.4,0-13.4-4-13.4-13.4v-12c0-9.4,4-13.4,13.4-13.4h12
	c9.4,0,13.4,4,13.4,13.4V70.1z"/>
<path class="st0" d="M70.1,107.5h-12c-14.4,0-22.5,7.9-22.5,22.5v12c0,14.5,7.9,22.5,22.5,22.5h12c14.5,0,22.5-7.9,22.5-22.5v-12
	C92.5,115.4,84.6,107.5,70.1,107.5z M83.5,141.9c0,9.4-4,13.4-13.4,13.4h-12c-9.4,0-13.4-4-13.4-13.4v-12c0-9.4,4-13.4,13.4-13.4h12
	c9.4,0,13.4,4,13.4,13.4V141.9z"/>
<path class="st0" d="M141.9,35.6h-12c-14.4,0-22.5,7.9-22.5,22.5v12c0,14.5,7.9,22.5,22.5,22.5h12c14.4,0,22.5-7.9,22.5-22.5v-12
	C164.4,43.5,156.5,35.6,141.9,35.6z M155.4,70.1c0,9.4-4,13.4-13.4,13.4h-12c-9.4,0-13.4-4-13.4-13.4v-12c0-9.4,4-13.4,13.4-13.4h12
	c9.4,0,13.4,4,13.4,13.4V70.1z"/>
<g>
	<path class="st1" d="M158.4,15.1c14.6,0,26.5,11.8,26.5,26.5v116.9c0,14.6-11.8,26.5-26.5,26.5H41.6c-14.6,0-26.5-11.8-26.5-26.5
		V41.6c0-14.6,11.8-26.5,26.5-26.5H158.4 M164.7,0H35.3C15.8,0,0,15.8,0,35.3v129.4C0,184.2,15.8,200,35.3,200h129.4
		c19.5,0,35.3-15.8,35.3-35.3V35.3C200,15.8,184.2,0,164.7,0L164.7,0z"/>
</g>
<g>
	<path class="st1" d="M70.1,114.8c10.5,0,15.2,4.7,15.2,15.2v12c0,10.5-4.7,15.2-15.2,15.2h-12c-10.5,0-15.2-4.7-15.2-15.2v-12
		c0-10.5,4.7-15.2,15.2-15.2H70.1 M70.1,107.5h-12c-14.5,0-22.5,7.9-22.5,22.5v12c0,14.5,7.9,22.5,22.5,22.5h12
		c14.5,0,22.5-7.9,22.5-22.5v-12C92.5,115.4,84.6,107.5,70.1,107.5L70.1,107.5z"/>
</g>
<g>
	<path class="st1" d="M70.1,42.9c10.5,0,15.2,4.7,15.2,15.2v12c0,10.5-4.7,15.2-15.2,15.2h-12c-10.5,0-15.2-4.7-15.2-15.2v-12
		c0-10.5,4.7-15.2,15.2-15.2L70.1,42.9 M70.1,35.6h-12c-14.5,0-22.5,7.9-22.5,22.5v12c0,14.5,7.9,22.5,22.5,22.5h12
		c14.5,0,22.5-7.9,22.5-22.5v-12C92.5,43.5,84.6,35.6,70.1,35.6L70.1,35.6z"/>
</g>
<g>
	<path class="st1" d="M141.9,114.8c10.5,0,15.2,4.7,15.2,15.2v12c0,10.5-4.7,15.2-15.2,15.2h-12c-10.5,0-15.2-4.7-15.2-15.2v-12
		c0-10.5,4.7-15.2,15.2-15.2H141.9 M141.9,107.5h-12c-14.5,0-22.5,7.9-22.5,22.5v12c0,14.5,8.1,22.5,22.5,22.5h12
		c14.5,0,22.5-7.9,22.5-22.5v-12C164.4,115.4,156.4,107.5,141.9,107.5L141.9,107.5z"/>
</g>
<g>
	<path class="st1" d="M141.9,42.9c10.5,0,15.2,4.7,15.2,15.2v12c0,10.5-4.7,15.2-15.2,15.2h-12c-10.5,0-15.2-4.7-15.2-15.2v-12
		c0-10.5,4.7-15.2,15.2-15.2L141.9,42.9 M141.9,35.6h-12c-14.5,0-22.5,7.9-22.5,22.5v12c0,14.5,8.1,22.5,22.5,22.5h12
		c14.5,0,22.5-7.9,22.5-22.5v-12C164.4,43.5,156.4,35.6,141.9,35.6L141.9,35.6z"/>
</g>
</svg>
