<svg xmlns="http://www.w3.org/2000/svg" viewBox="0 0 186.05 200"><defs><style>.cls-1{fill:#292d32;}</style></defs><g id="Layer_2" data-name="Layer 2"><g id="Layer_1-2" data-name="Layer 1"><path class="cls-1" d="M72.37,192.37a7,7,0,0,1-5.59-2.8L57.39,177a9.87,9.87,0,0,0-7.32-4.26,10,10,0,0,0-7.87,3.47c-13.44,14.41-23.71,13.3-28.66,11.35S0,179.18,0,158.6V53.86C0,12.59,11.89,0,50.89,0h70.32c39,0,50.88,12.59,50.88,53.86V93.49a7,7,0,0,1-14,0V53.86c0-33.57-5.87-39.91-36.93-39.91H50.89C19.82,14,14,20.29,14,53.86V158.6c0,9.72,2.44,15.11,4.7,16,1.65.62,6.25-.28,13.27-7.82a24.65,24.65,0,0,1,18.94-8,23.93,23.93,0,0,1,17.7,9.84L78,181.21a7,7,0,0,1-5.59,11.16Z"/><path class="cls-1" d="M143.72,194.42a36.75,36.75,0,1,1,36.75-36.74A36.79,36.79,0,0,1,143.72,194.42Zm0-59.54a22.8,22.8,0,1,0,22.8,22.8A22.83,22.83,0,0,0,143.72,134.88Z"/><path class="cls-1" d="M179.07,200a6.94,6.94,0,0,1-4.93-2l-9.31-9.31a7,7,0,1,1,9.87-9.86l9.3,9.3A7,7,0,0,1,179.07,200Z"/><path class="cls-1" d="M123.26,60.47H48.84a7,7,0,0,1,0-14h74.42a7,7,0,0,1,0,14Z"/><path class="cls-1" d="M114,97.67H58.14a7,7,0,1,1,0-14H114a7,7,0,1,1,0,14Z"/></g></g></svg>