<svg xmlns="http://www.w3.org/2000/svg" viewBox="0 0 200 200"><defs><style>.cls-1{fill:#292d32;}</style></defs><g id="Layer_2" data-name="Layer 2"><g id="Layer_1-2" data-name="Layer 1"><path class="cls-1" d="M151.16,200H20.93a7,7,0,0,1-7-7V34.88C14,14,28,0,48.84,0h74.42c20.86,0,34.88,14,34.88,34.88V193A7,7,0,0,1,151.16,200ZM27.91,186.05H144.19V34.88C144.19,16,129.55,14,123.26,14H48.84c-6.3,0-20.93,2-20.93,20.93Z"/><path class="cls-1" d="M165.12,200H7a7,7,0,1,1,0-13.95H165.12a7,7,0,0,1,0,13.95Z"/><path class="cls-1" d="M105.77,88.38H66.42c-15.15,0-24.56-9.41-24.56-24.56V52.38c0-15.15,9.41-24.56,24.56-24.56h39.35c15.14,0,24.55,9.41,24.55,24.56V63.82C130.32,79,120.91,88.38,105.77,88.38ZM66.42,41.77c-7.54,0-10.61,3.07-10.61,10.61V63.82c0,7.53,3.07,10.6,10.61,10.6h39.35c7.53,0,10.6-3.07,10.6-10.6V52.38c0-7.54-3.07-10.61-10.6-10.61Z"/><path class="cls-1" d="M76.74,116.28H48.84a7,7,0,1,1,0-14h27.9a7,7,0,1,1,0,14Z"/><path class="cls-1" d="M151.16,144.28a7,7,0,0,1,0-13.95l34.91-.08V85.71L171.3,78.33a7,7,0,0,1,6.23-12.48l18.61,9.3A7,7,0,0,1,200,81.4v55.81a7,7,0,0,1-7,7l-41.86.09Z"/></g></g></svg>