<svg xmlns="http://www.w3.org/2000/svg" viewBox="0 0 200 172.09"><defs><style>.cls-1{fill:#292d32;}</style></defs><g id="Layer_2" data-name="Layer 2"><g id="Layer_1-2" data-name="Layer 1"><path class="cls-1" d="M193,144.19H127.91a7,7,0,1,1,0-14H193a7,7,0,0,1,0,14Z"/><path class="cls-1" d="M34.88,144.19H7a7,7,0,1,1,0-14h27.9a7,7,0,0,1,0,14Z"/><path class="cls-1" d="M193,41.86h-27.9a7,7,0,1,1,0-13.95H193a7,7,0,1,1,0,14Z"/><path class="cls-1" d="M72.09,41.86H7A7,7,0,1,1,7,27.91H72.09a7,7,0,1,1,0,14Z"/><path class="cls-1" d="M109.3,172.09H53.49c-16,0-25.58-9.56-25.58-25.58v-18.6c0-16,9.56-25.58,25.58-25.58H109.3c16,0,25.58,9.56,25.58,25.58v18.6C134.88,162.53,125.32,172.09,109.3,172.09ZM53.49,116.28c-8.26,0-11.63,3.37-11.63,11.63v18.6c0,8.26,3.37,11.63,11.63,11.63H109.3c8.26,0,11.63-3.37,11.63-11.63v-18.6c0-8.26-3.37-11.63-11.63-11.63Z"/><path class="cls-1" d="M146.51,69.77H90.7c-16,0-25.58-9.56-25.58-25.58V25.58C65.12,9.56,74.68,0,90.7,0h55.81c16,0,25.58,9.56,25.58,25.58V44.19C172.09,60.21,162.53,69.77,146.51,69.77ZM90.7,14c-8.26,0-11.63,3.37-11.63,11.63V44.19c0,8.25,3.37,11.62,11.63,11.62h55.81c8.26,0,11.63-3.37,11.63-11.62V25.58c0-8.26-3.37-11.63-11.63-11.63Z"/></g></g></svg>