<svg width="25" height="24" viewBox="0 0 25 24" fill="none" xmlns="http://www.w3.org/2000/svg">
<path d="M9.40222 19H8.90193C4.8996 19 2.89844 18 2.89844 13V8C2.89844 4 4.8996 2 8.90193 2H16.9066C20.9089 2 22.9101 4 22.9101 8V13C22.9101 17 20.9089 19 16.9066 19H16.4063C16.0961 19 15.7959 19.15 15.6058 19.4L14.1049 21.4C13.4446 22.28 12.3639 22.28 11.7036 21.4L10.2027 19.4C10.0426 19.18 9.67237 19 9.40222 19Z" stroke="#292D32" stroke-width="1.5" stroke-miterlimit="10" stroke-linecap="round" stroke-linejoin="round"/>
<path d="M7.90137 8H17.9072" stroke="#292D32" stroke-width="1.5" stroke-linecap="round" stroke-linejoin="round"/>
<path d="M7.90137 13H13.9049" stroke="#292D32" stroke-width="1.5" stroke-linecap="round" stroke-linejoin="round"/>
</svg>
