<svg width="20" height="20" viewBox="0 0 20 20" fill="none" xmlns="http://www.w3.org/2000/svg">
<path d="M8.33301 15.8333C8.33301 16.75 9.08301 17.5 9.99967 17.5C10.9163 17.5 11.6663 16.75 11.6663 15.8333C11.6663 14.9167 10.9163 14.1667 9.99967 14.1667C9.08301 14.1667 8.33301 14.9167 8.33301 15.8333Z" stroke="black" stroke-width="1.5"/>
<path d="M8.33301 4.16634C8.33301 5.08301 9.08301 5.83301 9.99967 5.83301C10.9163 5.83301 11.6663 5.08301 11.6663 4.16634C11.6663 3.24967 10.9163 2.49967 9.99967 2.49967C9.08301 2.49967 8.33301 3.24967 8.33301 4.16634Z" stroke="black" stroke-width="1.5"/>
<path d="M8.33301 10.0003C8.33301 10.917 9.08301 11.667 9.99967 11.667C10.9163 11.667 11.6663 10.917 11.6663 10.0003C11.6663 9.08366 10.9163 8.33366 9.99967 8.33366C9.08301 8.33366 8.33301 9.08366 8.33301 10.0003Z" stroke="black" stroke-width="1.5"/>
</svg>
