<svg width="25" height="24" viewBox="0 0 25 24" fill="none" xmlns="http://www.w3.org/2000/svg">
<path d="M12.9764 2.91016C9.6645 2.91016 6.97294 5.60016 6.97294 8.91016V11.8002C6.97294 12.4102 6.71279 13.3402 6.40261 13.8602L5.25194 15.7702C4.54152 16.9502 5.03181 18.2602 6.33257 18.7002C10.6451 20.1402 15.2978 20.1402 19.6103 18.7002C20.821 18.3002 21.3513 16.8702 20.6909 15.7702L19.5402 13.8602C19.2401 13.3402 18.9799 12.4102 18.9799 11.8002V8.91016C18.9799 5.61016 16.2783 2.91016 12.9764 2.91016Z" stroke="#292D32" stroke-width="1.5" stroke-miterlimit="10" stroke-linecap="round"/>
<path d="M14.8272 3.20043C14.517 3.11043 14.1968 3.04043 13.8666 3.00043C12.906 2.88043 11.9855 2.95043 11.125 3.20043C11.4152 2.46043 12.1356 1.94043 12.9761 1.94043C13.8166 1.94043 14.537 2.46043 14.8272 3.20043Z" stroke="#292D32" stroke-width="1.5" stroke-miterlimit="10" stroke-linecap="round" stroke-linejoin="round"/>
<path d="M15.9781 19.0596C15.9781 20.7096 14.6273 22.0596 12.9764 22.0596C12.1559 22.0596 11.3954 21.7196 10.8551 21.1796C10.3148 20.6396 9.97461 19.8796 9.97461 19.0596" stroke="#292D32" stroke-width="1.5" stroke-miterlimit="10"/>
</svg>
